<svg width="92" height="32" fill="none" xmlns="http://www.w3.org/2000/svg" viewBox="0 0 56 20">
    <path d="M9.624 4.719c-.648 0-1.248.115-1.809.345A4.22 4.22 0 006.342 6.08c-.423.446-.76 1.004-1.005 1.666-.25.665-.373 1.416-.373 2.26 0 .844.123 1.595.373 2.26.25.665.59 1.227 1.024 1.684.434.461.933.803 1.49 1.034.56.23 1.162.345 1.81.345.621 0 1.175-.096 1.656-.286a4.19 4.19 0 001.248-.747c.348-.305.626-.65.84-1.034.21-.382.365-.75.467-1.111l4.36 1.494a8.311 8.311 0 01-.988 2.316 8.14 8.14 0 01-1.77 2.03 8.844 8.844 0 01-2.536 1.454c-.97.368-2.062.553-3.281.553a9.63 9.63 0 01-3.785-.747 9.283 9.283 0 01-3.075-2.085 9.872 9.872 0 01-2.052-3.16C.25 12.793 0 11.458 0 10 0 8.544.242 7.206.727 5.98 1.212 4.752 1.881 3.7 2.74 2.819A9.312 9.312 0 019.5.005c1.241 0 2.355.186 3.336.554.98.372 1.83.847 2.554 1.435a7.437 7.437 0 011.751 2.03 8.95 8.95 0 01.97 2.334L13.676 7.89c-.224-.792-.651-1.52-1.284-2.183-.623-.658-1.549-.988-2.768-.988z" fill="url(#paint0_linear_ccc)"/>
    <path d="M13.409 13.257c-.21.382-.493.728-.84 1.033a4.27 4.27 0 01-1.248.747c-.485.193-1.038.286-1.657.286-.26 0-.514-.022-.76-.059-2.301-.208-4.812-1.67-7.793-4.264A25.272 25.272 0 01.007 9.981v.023c0 1.453.25 2.788.746 4.004a9.751 9.751 0 002.051 3.16 9.228 9.228 0 003.075 2.085A9.63 9.63 0 009.664 20c1.216 0 2.312-.186 3.281-.554a8.892 8.892 0 002.537-1.453 8.138 8.138 0 001.769-2.03c.46-.755.789-1.524.988-2.316l-4.364-1.498a5.366 5.366 0 01-.466 1.108z" fill="url(#paint1_linear_ccc)"/>
    <path d="M13.875 12.149c-.003.01-.199 2.037-.5 2.985-.853 2.699-2.213 4.215-4.019 4.859.102.003.203.007.308.007 1.215 0 2.312-.186 3.281-.554a8.892 8.892 0 002.537-1.454 8.136 8.136 0 001.769-2.03c.46-.754.789-1.523.988-2.315l-4.364-1.498z" fill="url(#paint2_linear_ccc)"/>
    <path d="M13.173 3.814c.778 1.513.908 2.762.514 4.081V7.9l4.436-1.531a8.895 8.895 0 00-.97-2.335 7.497 7.497 0 00-1.751-2.03c-.72-.587-1.57-1.067-2.554-1.435C11.868.2 10.756.014 9.515.014c1.56.99 2.895 2.313 3.658 3.8z" fill="url(#paint3_linear_ccc)"/>
    <path d="M28.528 4.717c-.647 0-1.248.116-1.809.346a4.22 4.22 0 00-1.472 1.015c-.424.446-.76 1.004-1.006 1.665-.25.666-.373 1.417-.373 2.26 0 .845.123 1.595.373 2.26.25.666.59 1.228 1.024 1.685.434.46.933.803 1.49 1.033.561.23 1.162.346 1.81.346.622 0 1.175-.096 1.657-.286a4.19 4.19 0 001.248-.747c.347-.305.626-.65.84-1.034.209-.383.364-.75.466-1.111l4.363 1.49a8.31 8.31 0 01-.988 2.316 8.14 8.14 0 01-1.769 2.03 8.846 8.846 0 01-2.536 1.454c-.97.368-2.062.554-3.282.554a9.631 9.631 0 01-3.784-.748 9.287 9.287 0 01-3.075-2.085A9.872 9.872 0 0119.653 14c-.495-1.212-.745-2.546-.745-4.004 0-1.457.242-2.795.727-4.022.485-1.227 1.154-2.279 2.012-3.16A9.31 9.31 0 0128.409 0c1.24 0 2.355.186 3.336.554.98.372 1.83.847 2.554 1.435a7.437 7.437 0 011.751 2.03 8.95 8.95 0 01.97 2.334l-4.436 1.532c-.224-.792-.651-1.52-1.284-2.182-.626-.655-1.553-.986-2.772-.986z" fill="url(#paint4_linear_ccc)"/>
    <path d="M32.313 13.257c-.21.382-.492.728-.84 1.033a4.27 4.27 0 01-1.248.747c-.485.193-1.038.286-1.657.286-.26 0-.514-.022-.76-.059-2.3-.208-4.812-1.67-7.793-4.264a25.269 25.269 0 01-1.103-1.019v.023c0 1.453.25 2.788.745 4.004a9.753 9.753 0 002.051 3.16 9.229 9.229 0 003.076 2.085 9.63 9.63 0 003.784.747c1.216 0 2.312-.186 3.282-.554a8.892 8.892 0 002.536-1.453 8.139 8.139 0 001.77-2.03c.459-.755.788-1.524.987-2.316l-4.36-1.495c-.105.354-.26.722-.47 1.105z" fill="url(#paint5_linear_ccc)"/>
    <path d="M32.78 12.149c-.004.01-.2 2.037-.5 2.985-.854 2.699-2.214 4.215-4.02 4.859.102.003.203.007.308.007 1.216 0 2.312-.186 3.282-.554a8.892 8.892 0 002.536-1.454 8.137 8.137 0 001.77-2.03 8.36 8.36 0 00.987-2.315l-4.364-1.498z" fill="url(#paint6_linear_ccc)"/>
    <path d="M32.078 3.814c.777 1.513.908 2.762.513 4.081V7.9l4.436-1.531a8.899 8.899 0 00-.97-2.335 7.5 7.5 0 00-1.75-2.03c-.72-.587-1.571-1.067-2.555-1.435C30.772.2 29.66.014 28.42.014c1.56.99 2.894 2.313 3.657 3.8z" fill="url(#paint7_linear_ccc)"/>
    <path d="M47.39 4.717c-.649 0-1.25.116-1.81.346a4.22 4.22 0 00-1.472 1.015c-.424.446-.76 1.004-1.006 1.665-.25.666-.373 1.417-.373 2.26 0 .845.123 1.596.373 2.26.25.666.59 1.228 1.024 1.685.434.46.933.803 1.49 1.033.561.23 1.162.346 1.81.346.621 0 1.175-.097 1.656-.286.485-.194.901-.439 1.248-.747.348-.305.626-.65.84-1.034.21-.383.365-.75.467-1.111l4.36 1.494a8.312 8.312 0 01-.988 2.316 8.136 8.136 0 01-1.77 2.03 8.843 8.843 0 01-2.536 1.453c-.97.368-2.062.554-3.281.554a9.629 9.629 0 01-3.785-.747 9.284 9.284 0 01-3.075-2.086 9.872 9.872 0 01-2.052-3.16c-.495-1.211-.745-2.546-.745-4.003 0-1.457.242-2.796.727-4.022.485-1.227 1.155-2.28 2.012-3.16A9.312 9.312 0 0147.266.004c1.241 0 2.355.186 3.336.554.98.371 1.83.847 2.554 1.435a7.435 7.435 0 011.751 2.03c.449.765.771 1.546.97 2.334l-4.436 1.531c-.224-.791-.651-1.52-1.284-2.182-.626-.658-1.552-.989-2.768-.989z" fill="url(#paint8_linear_ccc)"/>
    <path d="M51.17 13.257c-.21.382-.492.728-.84 1.033a4.27 4.27 0 01-1.248.747c-.484.193-1.038.286-1.657.286-.26 0-.513-.022-.76-.059-2.3-.208-4.812-1.67-7.793-4.264a25.211 25.211 0 01-1.103-1.019v.023c0 1.453.25 2.788.745 4.004a9.753 9.753 0 002.051 3.16 9.228 9.228 0 003.076 2.085 9.629 9.629 0 003.784.747c1.216 0 2.312-.186 3.282-.554a8.892 8.892 0 002.536-1.453 8.136 8.136 0 001.77-2.03c.459-.755.788-1.524.987-2.316l-4.36-1.495a5.249 5.249 0 01-.47 1.105z" fill="url(#paint9_linear_ccc)"/>
    <path d="M51.637 12.149c-.004.01-.2 2.037-.5 2.985-.853 2.699-2.214 4.215-4.02 4.859.102.003.203.007.308.007 1.216 0 2.312-.186 3.282-.554a8.892 8.892 0 002.536-1.454 8.136 8.136 0 001.77-2.03c.459-.754.788-1.523.987-2.315l-4.363-1.498z" fill="url(#paint10_linear_ccc)"/>
    <path d="M50.935 3.814c.778 1.513.908 2.762.514 4.081V7.9l4.435-1.531a8.899 8.899 0 00-.97-2.335 7.497 7.497 0 00-1.75-2.03c-.72-.587-1.57-1.067-2.555-1.435C49.63.2 48.518.014 47.277.014c1.56.99 2.898 2.313 3.658 3.8z" fill="url(#paint11_linear_ccc)"/>
    <defs>
        <linearGradient id="paint0_linear_ccc" x1="9.122" y1=".058" x2="9.122" y2="20.028" gradientUnits="userSpaceOnUse">
            <stop stop-color="#FCC30B"/>
            <stop offset=".996" stop-color="#E48E0A"/>
        </linearGradient>
        <linearGradient id="paint1_linear_ccc" x1="18.325" y1="14.989" x2="-.006" y2="14.989" gradientUnits="userSpaceOnUse">
            <stop stop-color="#FCC30B"/>
            <stop offset=".996" stop-color="#D8740A"/>
        </linearGradient>
        <linearGradient id="paint2_linear_ccc" x1="13.795" y1="19.924" x2="13.795" y2="12.166" gradientUnits="userSpaceOnUse">
            <stop offset="0" stop-color="#D1640A"/>
            <stop offset=".996" stop-color="#E28A0A"/>
        </linearGradient>
        <linearGradient id="paint3_linear_ccc" x1="13.82" y1=".038" x2="13.82" y2="6.853" gradientUnits="userSpaceOnUse">
            <stop stop-color="#F4B20B"/>
            <stop offset="1" stop-color="#D1650A"/>
        </linearGradient>
        <linearGradient id="paint4_linear_ccc" x1="28.026" y1=".057" x2="28.026" y2="20.027" gradientUnits="userSpaceOnUse">
            <stop stop-color="#00A9E7"/>
            <stop offset=".996" stop-color="#005FB4"/>
        </linearGradient>
        <linearGradient id="paint5_linear_ccc" x1="37.23" y1="14.989" x2="18.898" y2="14.989" gradientUnits="userSpaceOnUse">
            <stop offset="0" stop-color="#00A6E4"/>
            <stop offset="1" stop-color="#00538F"/>
        </linearGradient>
        <linearGradient id="paint6_linear_ccc" x1="32.7" y1="19.911" x2="32.7" y2="12.182" gradientUnits="userSpaceOnUse">
            <stop stop-color="#003D7F"/>
            <stop offset="1" stop-color="#005CAF"/>
        </linearGradient>
        <linearGradient id="paint7_linear_ccc" x1="32.724" y1=".007" x2="32.724" y2="6.886" gradientUnits="userSpaceOnUse">
            <stop stop-color="#00A9E7"/>
            <stop offset=".999" stop-color="#005593"/>
        </linearGradient>
        <linearGradient id="paint8_linear_ccc" x1="46.885" y1=".057" x2="46.885" y2="20.027" gradientUnits="userSpaceOnUse">
            <stop stop-color="#00A9E7"/>
            <stop offset=".996" stop-color="#005FB4"/>
        </linearGradient>
        <linearGradient id="paint9_linear_ccc" x1="56.089" y1="14.989" x2="37.757" y2="14.989" gradientUnits="userSpaceOnUse">
            <stop offset="0" stop-color="#00A6E4"/>
            <stop offset="1" stop-color="#00538F"/>
        </linearGradient>
        <linearGradient id="paint10_linear_ccc" x1="51.559" y1="19.915" x2="51.559" y2="12.171" gradientUnits="userSpaceOnUse">
            <stop stop-color="#003D7F"/>
            <stop offset=".996" stop-color="#005CAF"/>
        </linearGradient>
        <linearGradient id="paint11_linear_ccc" x1="51.583" y1=".007" x2="51.583" y2="6.885" gradientUnits="userSpaceOnUse">
            <stop stop-color="#00A9E7"/>
            <stop offset=".996" stop-color="#005593"/>
        </linearGradient>
    </defs>
</svg>