<svg width="24" height="24" viewBox="0 0 24 24" fill="none" xmlns="http://www.w3.org/2000/svg">
    <path fill-rule="evenodd" clip-rule="evenodd"
          d="M4 12C4 7.58172 7.58172 4 12 4C16.4183 4 20 7.58172 20 12C20 16.4183 16.4183 20 12 20C7.58172 20 4 16.4183 4 12ZM12 2C6.47715 2 2 6.47715 2 12C2 17.5228 6.47715 22 12 22C17.5228 22 22 17.5228 22 12C22 6.47715 17.5228 2 12 2ZM11 10C11 9.44772 11.4477 9 12 9C12.5523 9 13 9.44772 13 10C13 10.5523 12.5523 11 12 11C11.4477 11 11 11.4477 11 12V13C11 13.5523 11.4477 14 12 14C12.5523 14 13 13.5523 13 13V12.8293C14.1652 12.4175 15 11.3062 15 10C15 8.34315 13.6569 7 12 7C10.3431 7 9 8.34315 9 10C9 10.5523 9.44772 11 10 11C10.5523 11 11 10.5523 11 10ZM13 15.75C13 15.1977 12.5523 14.75 12 14.75C11.4477 14.75 11 15.1977 11 15.75V16C11 16.5523 11.4477 17 12 17C12.5523 17 13 16.5523 13 16V15.75Z"
          fill="#485B6E"/>
</svg>
