<svg width="24" height="24" viewBox="0 0 24 24" fill="none" xmlns="http://www.w3.org/2000/svg">
    <path fill-rule="evenodd" clip-rule="evenodd"
          d="M8.6737 18H3.00006C2.56963 18 2.1875 17.7246 2.05138 17.3162C1.91527 16.9079 2.05572 16.4583 2.40006 16.2C2.88959 15.8329 3.23613 15.5504 3.47676 15.3249C3.62521 15.1858 3.71445 15.0855 3.76687 15.0183C3.75267 14.9988 3.7355 14.976 3.7148 14.9498C2.64125 13.5882 2.00006 11.8676 2.00006 10C2.00006 5.58172 5.58179 2 10.0001 2C13.9472 2 17.2267 4.85863 17.8812 8.61854C20.3101 9.71686 22.0001 12.1611 22.0001 15C22.0001 16.5616 21.4876 18.0059 20.6224 19.1706C20.6766 19.2335 20.7454 19.31 20.8327 19.4031C21.0458 19.6303 21.3291 19.9148 21.7072 20.2929C21.9932 20.5789 22.0787 21.009 21.9239 21.3827C21.7692 21.7564 21.4045 22 21.0001 22H15.0001C12.2077 22 9.79716 20.3649 8.6737 18ZM4.00006 10C4.00006 6.68629 6.68636 4 10.0001 4C12.6243 4 14.8551 5.68473 15.6697 8.03162C15.4493 8.0107 15.2259 8 15.0001 8C11.1341 8 8.00007 11.134 8.00007 15C8.00007 15.3395 8.02424 15.6734 8.07095 16H5.51766C5.55075 15.9466 5.58154 15.8924 5.60976 15.8373C5.80666 15.4529 5.87346 15.0333 5.76268 14.6016C5.66586 14.2243 5.45249 13.9234 5.28533 13.7114C4.48001 12.6901 4.00006 11.4025 4.00006 10ZM10.0001 15C10.0001 12.2386 12.2386 10 15.0001 10C17.7615 10 20.0001 12.2386 20.0001 15C20.0001 16.1975 19.5804 17.2943 18.8791 18.1552C18.7399 18.326 18.529 18.624 18.4959 19.04C18.4645 19.4366 18.6069 19.7637 18.751 20H15.0001C12.2386 20 10.0001 17.7614 10.0001 15ZM20.4514 18.9463L20.4532 18.9496C20.4519 18.9473 20.4514 18.9463 20.4514 18.9463ZM20.4147 19.4382C20.4147 19.4382 20.4163 19.4361 20.4188 19.4323C20.4172 19.4344 20.4155 19.4369 20.4155 19.4369L20.4147 19.4382Z"
          fill="#485B6E"/>
</svg>
