<svg style="-webkit-font-smoothing:none" class="rightslink" width="96" height="40" viewBox="0 0 96 40" fill="none" xmlns="http://www.w3.org/2000/svg"><path d="M0 11.025v14.344h2.473v-5.86h.877l3.988 5.86h3.071l-4.327-6.107c1.635-.471 3.19-1.7 3.19-4.016 0-3.053-2.751-4.221-4.965-4.221H0zm3.849 6.311H2.473v-4.14h1.774c1.436 0 2.413.84 2.413 2.111 0 1.435-1.196 2.03-2.811 2.03zM12.264 14.816v10.553h2.412V14.816h-2.412zm0-4.037v2.315h2.412V10.78h-2.412zM22.184 30c1.914 0 3.669-.676 4.586-2.398.399-.737.618-1.66.618-2.786v-10h-2.213l-.12 1.209c-.778-1.004-2.074-1.455-3.17-1.455-2.952 0-4.966 2.5-4.966 5.369 0 3.053 2.114 5.43 4.906 5.43 1.096 0 2.393-.43 3.13-1.476v1.189c0 1.926-1.256 2.746-2.831 2.746-1.137 0-2.612-.471-3.69-1.312l-.897 2.05c1.356.963 3.071 1.434 4.647 1.434zm.1-6.803c-1.775 0-2.912-1.496-2.912-3.197 0-1.598.957-3.258 2.971-3.258.937 0 1.914.41 2.612 1.332v3.504c-.578 1.127-1.695 1.619-2.672 1.619zM30.257 10v15.369h2.412V18.36c.599-.984 1.596-1.62 2.553-1.62.738 0 1.256.267 1.555.8.38.656.4 1.64.4 2.52v5.308h2.412v-5.492c0-1.537-.16-2.93-.917-3.955-.639-.84-1.596-1.352-2.832-1.352-1.196 0-2.373.553-3.17 1.68V10h-2.413zM45.736 25.594c.758 0 1.635-.205 2.233-.553l-.717-1.885a2.289 2.289 0 01-1.137.287c-.738 0-.997-.41-1.097-1.23-.04-.328-.04-.635-.04-.943v-4.364h2.712v-2.09h-2.712v-2.418h-2.173l-.26 2.418H41.27v2.09h1.277v4.733c0 .697.06 1.394.259 1.947.419 1.21 1.396 2.008 2.931 2.008zM52.721 25.615c1.995 0 3.869-1.025 3.869-3.36 0-1.948-1.675-2.665-2.991-3.198-.917-.389-1.775-.758-1.775-1.475 0-.635.519-1.025 1.217-1.025.757 0 1.535.37 2.034.82l1.355-1.516c-.897-.861-2.113-1.291-3.39-1.291-1.814 0-3.529 1.045-3.529 3.196 0 1.886 1.555 2.603 2.772 3.115.917.39 1.914.8 1.914 1.537 0 .84-.797 1.209-1.535 1.209-.918 0-1.615-.43-2.353-1.188l-1.476 1.434a5.11 5.11 0 003.889 1.742zM59.237 11.025v14.344h8.336v-2.172H61.71V11.025h-2.473zM69.145 14.816v10.553h2.413V14.816h-2.413zm0-4.037v2.315h2.413V10.78h-2.413zM74.558 14.816v10.553h2.413V18.36c.598-.984 1.595-1.62 2.552-1.62.738 0 1.257.267 1.556.8.379.656.399 1.64.399 2.52v5.308h2.413v-5.492c0-1.537-.16-2.91-.918-3.955-.618-.86-1.595-1.352-2.831-1.352-1.237 0-2.453.594-3.27 1.803l-.12-1.557h-2.194zM86.787 10v15.369H89.2v-2.746l1.257-1.496 2.592 4.242H96l-3.928-6.189 3.629-4.364h-2.812l-3.649 4.692-.04-.02V10h-2.413z" fill="#00326E"/></svg>