<svg width="16" height="16" viewBox="0 0 16 16" fill="none" xmlns="http://www.w3.org/2000/svg">
    <path fill-rule="evenodd" clip-rule="evenodd"
          d="M10.6655 5.41387C10.6229 6.84934 9.44579 7.99992 8 7.99992C6.54786 7.99992 5.36681 6.8392 5.33403 5.39493C5.33357 5.37443 5.33333 5.35387 5.33333 5.33325C5.33333 3.86049 6.52724 2.66659 8 2.66659C9.47276 2.66659 10.6667 3.86049 10.6667 5.33325C10.6667 5.36022 10.6663 5.3871 10.6655 5.41387ZM11.6409 9.23045C11.3948 9.04236 11.1338 8.87287 10.86 8.72409C10.7195 8.64778 10.5756 8.57692 10.4287 8.5118C10.7995 8.228 11.1193 7.88076 11.3717 7.48629C11.7694 6.86474 12 6.12592 12 5.33325C12 3.12411 10.2091 1.33325 8 1.33325C5.79086 1.33325 4 3.12411 4 5.33325C4 6.12592 4.23057 6.86474 4.6283 7.48629C4.85407 7.83913 5.13372 8.15418 5.45563 8.41985C5.49361 8.45119 5.53218 8.48185 5.57131 8.5118C5.13781 8.70392 4.73133 8.9459 4.35913 9.23045C2.92506 10.3268 2 12.0553 2 13.9999C2 14.3681 2.29848 14.6666 2.66667 14.6666C3.03486 14.6666 3.33333 14.3681 3.33333 13.9999C3.33333 13.7621 3.35113 13.5283 3.38548 13.2999C3.72322 11.0547 5.66058 9.33325 8 9.33325C10.2056 9.33325 12.0538 10.8633 12.5411 12.9199C12.6232 13.2666 12.6667 13.6282 12.6667 13.9999C12.6667 14.3681 12.9651 14.6666 13.3333 14.6666C13.7015 14.6666 14 14.3681 14 13.9999C14 12.0553 13.0749 10.3268 11.6409 9.23045Z"
          fill="#1479CC"/>
</svg>
